<?xml version="1.0"?>
<svg xmlns="http://www.w3.org/2000/svg" xmlns:xlink="http://www.w3.org/1999/xlink" xmlns:svgjs="http://svgjs.com/svgjs" version="1.1" width="512" height="512" x="0" y="0" viewBox="0 0 47.001 47.001" style="enable-background:new 0 0 512 512" xml:space="preserve" class=""><rect width="47.001" height="47.001" fill="#bac8d3" shape="square"/><g transform="matrix(0.7,0,0,0.7,7.05030037164688,7.050150082411712)">
<g xmlns="http://www.w3.org/2000/svg">
	<g id="Layer_1_164_">
		<g>
			<path d="M44.863,0.001H2.137C0.955,0.001,0,0.958,0,2.137V28.29c0.597-0.319,1.269-0.516,1.992-0.516h2.28v-1.068h6.409     c0.591,0,1.068-0.479,1.068-1.068c0-0.589-0.478-1.068-1.068-1.068H4.272V12.82h7.478v6.409c0,0.59,0.478,1.068,1.068,1.068     h5.341c0.591,0,1.068-0.478,1.068-1.068s-0.478-1.068-1.068-1.068h-4.272v-6.41c0-0.59-0.479-1.068-1.068-1.068H4.272V4.274     h13.887v9.613c0,0.59,0.478,1.068,1.068,1.068s1.068-0.479,1.068-1.068V4.274h10.146v6.409h-3.738     c-0.59,0-1.066,0.479-1.066,1.068s0.477,1.068,1.066,1.068h9.613c0.591,0,1.068-0.479,1.068-1.068s-0.479-1.068-1.068-1.068     h-3.738V4.274h10.148v7.738c0.111,0.059,0.225,0.118,0.33,0.189L47,14.831V2.137C47,0.958,46.042,0.001,44.863,0.001z" fill="#00d8f2" data-original="#000000" style="" class=""/>
			<path d="M42.729,24.308v4.534H35.25v-4.272c0-0.59-0.479-1.067-1.068-1.067s-1.068,0.479-1.068,1.067v12.818     c0,0.59,0.479,1.068,1.068,1.068c0.592,0,1.068-0.479,1.068-1.068v-6.408h7.479v11.75H25.637v-8.545h3.204     c0.591,0,1.068-0.479,1.068-1.068s-0.478-1.068-1.068-1.068h-4.272c-0.591,0-1.068,0.479-1.068,1.068v4.271h-9.613     c-0.591,0-1.068,0.479-1.068,1.068s0.478,1.068,1.068,1.068H23.5v3.203H4.272v-6.408h-2.28c-0.724,0-1.396-0.198-1.992-0.518     v9.062C0,46.044,0.955,47,2.137,47h42.726c1.18,0,2.138-0.957,2.138-2.136V21.49l-3.944,2.631     C42.95,24.19,42.838,24.249,42.729,24.308z" fill="#00d8f2" data-original="#000000" style="" class=""/>
			<path d="M46.286,16.827l-4.272-2.85c-0.492-0.329-1.123-0.36-1.646-0.08c-0.519,0.279-0.845,0.822-0.845,1.413v0.714H26.848     c-1.18,0-2.138,0.957-2.138,2.136v6.409h-6.409c-1.179,0-2.136,0.957-2.136,2.136v3.205H2.137C0.955,29.91,0,30.867,0,32.046     c0,1.18,0.955,2.137,2.137,2.137h16.164c1.181,0,2.137-0.957,2.137-2.137v-3.205h6.41c1.18,0,2.135-0.957,2.135-2.136v-6.409     h10.541v0.713c0,0.591,0.326,1.134,0.845,1.413c0.237,0.127,0.497,0.189,0.758,0.189c0.312,0,0.619-0.09,0.89-0.269l4.271-2.85     c0.443-0.297,0.714-0.797,0.714-1.333C47.001,17.623,46.73,17.124,46.286,16.827z" fill="#00d8f2" data-original="#000000" style="" class=""/>
		</g>
	</g>
</g>
<g xmlns="http://www.w3.org/2000/svg">
</g>
<g xmlns="http://www.w3.org/2000/svg">
</g>
<g xmlns="http://www.w3.org/2000/svg">
</g>
<g xmlns="http://www.w3.org/2000/svg">
</g>
<g xmlns="http://www.w3.org/2000/svg">
</g>
<g xmlns="http://www.w3.org/2000/svg">
</g>
<g xmlns="http://www.w3.org/2000/svg">
</g>
<g xmlns="http://www.w3.org/2000/svg">
</g>
<g xmlns="http://www.w3.org/2000/svg">
</g>
<g xmlns="http://www.w3.org/2000/svg">
</g>
<g xmlns="http://www.w3.org/2000/svg">
</g>
<g xmlns="http://www.w3.org/2000/svg">
</g>
<g xmlns="http://www.w3.org/2000/svg">
</g>
<g xmlns="http://www.w3.org/2000/svg">
</g>
<g xmlns="http://www.w3.org/2000/svg">
</g>
</g></svg>
