<?xml version="1.0" encoding="iso-8859-1"?>
<!-- Generator: Adobe Illustrator 19.0.0, SVG Export Plug-In . SVG Version: 6.00 Build 0)  -->
<svg xmlns="http://www.w3.org/2000/svg" xmlns:xlink="http://www.w3.org/1999/xlink" version="1.1" id="Capa_1" x="0px" y="0px" viewBox="0 0 512 512" style="enable-background:new 0 0 512 512;" xml:space="preserve" width="512" height="512">
<g>
	<g>
		<path style="fill:#EBEEF2;" d="M360.325,76.362h-208.65c-24.465,0-44.292,19.828-44.292,44.281v195.615v60.437v14.663    c0,24.453,19.828,44.281,44.292,44.281h208.65c24.465,0,44.292-19.828,44.292-44.281V195.743v-60.437v-14.663    C404.617,96.189,384.79,76.362,360.325,76.362z"/>
		<path style="fill:#D1D6DE;" d="M360.325,76.362h-208.65c-17.561,0-32.731,10.217-39.896,25.027    c4.339-1.42,8.969-2.198,13.784-2.198h208.65c24.465,0,44.292,19.828,44.292,44.281v14.663v60.437v195.615    c0,6.901-1.58,13.432-4.397,19.254c17.712-5.795,30.508-22.442,30.508-42.083V195.743v-60.437v-14.663    C404.617,96.189,384.79,76.362,360.325,76.362z"/>
		<g>
			<path style="fill:#ED5575;" d="M31.826,375.774C14.277,375.774,0,361.497,0,343.948s14.277-31.826,31.826-31.826     s31.826,14.277,31.826,31.826S49.375,375.774,31.826,375.774z M31.826,327.122c-9.278,0-16.826,7.548-16.826,16.826     s7.548,16.826,16.826,16.826s16.826-7.548,16.826-16.826S41.104,327.122,31.826,327.122z"/>
			<g>
				<path style="fill:#5C9CEE;" d="M504.5,189.773c-1.919,0-3.839-0.732-5.303-2.196l-38.547-38.548      c-2.929-2.93-2.929-7.678,0-10.607c2.929-2.928,7.678-2.928,10.606,0l38.547,38.548c2.929,2.93,2.929,7.678,0,10.607      C508.339,189.041,506.419,189.773,504.5,189.773z"/>
				<path style="fill:#5C9CEE;" d="M465.953,189.773c-1.919,0-3.839-0.732-5.303-2.196c-2.929-2.93-2.929-7.678,0-10.607      l38.547-38.548c2.929-2.928,7.678-2.928,10.606,0c2.929,2.93,2.929,7.678,0,10.607l-38.547,38.548      C469.792,189.041,467.872,189.773,465.953,189.773z"/>
			</g>
		</g>
		<g>
			<path style="fill:#48CFB7;" d="M146.867,353.975H85.308c-4.142,0-7.5-3.357-7.5-7.5s3.358-7.5,7.5-7.5h54.059v-95.325     c0-4.143,3.358-7.5,7.5-7.5H226c4.142,0,7.5,3.357,7.5,7.5V300.5h69.64V165.525c0-4.143,3.358-7.5,7.5-7.5h116.052     c4.142,0,7.5,3.357,7.5,7.5s-3.358,7.5-7.5,7.5H318.14V308c0,4.143-3.358,7.5-7.5,7.5H226c-4.142,0-7.5-3.357-7.5-7.5v-56.851     h-64.133v95.325C154.367,350.617,151.009,353.975,146.867,353.975z"/>
		</g>
	</g>
	<g>
		<path d="M107.383,159.502c4.142,0,7.5-3.357,7.5-7.5v-31.359c0-20.281,16.505-36.781,36.792-36.781h66.641V165.5h-49.382V124    c0-4.143-3.358-7.5-7.5-7.5s-7.5,3.357-7.5,7.5v86c0,4.143,3.358,7.5,7.5,7.5s7.5-3.357,7.5-7.5v-29.5h56.882    c4.142,0,7.5-3.357,7.5-7.5V83.861H335.5v33.319H269c-4.142,0-7.5,3.357-7.5,7.5V257c0,4.143,3.358,7.5,7.5,7.5s7.5-3.357,7.5-7.5    V132.181H343c4.142,0,7.5-3.357,7.5-7.5V83.861h9.825c20.287,0,36.792,16.5,36.792,36.781v12.663c0,4.143,3.358,7.5,7.5,7.5    s7.5-3.357,7.5-7.5v-12.663c0-28.553-23.234-51.781-51.792-51.781h-208.65c-28.558,0-51.792,23.229-51.792,51.781v31.359    C99.883,156.145,103.241,159.502,107.383,159.502z"/>
		<path d="M107.383,321.758c4.142,0,7.5-3.357,7.5-7.5V182c0-4.143-3.358-7.5-7.5-7.5s-7.5,3.357-7.5,7.5v132.258    C99.883,318.4,103.241,321.758,107.383,321.758z"/>
		<path d="M404.617,190.242c-4.142,0-7.5,3.357-7.5,7.5V219.5H357c-4.142,0-7.5,3.357-7.5,7.5v117.448H234    c-4.142,0-7.5,3.357-7.5,7.5s3.358,7.5,7.5,7.5h123c4.142,0,7.5-3.357,7.5-7.5V234.5h32.617v156.857    c0,20.281-16.505,36.781-36.792,36.781h-87.627V393c0-4.143-3.358-7.5-7.5-7.5h-71.265v-97c0-4.143-3.358-7.5-7.5-7.5    s-7.5,3.357-7.5,7.5V393c0,4.143,3.358,7.5,7.5,7.5h71.265v27.639H151.675c-20.287,0-36.792-16.5-36.792-36.781v-12.663    c0-4.143-3.358-7.5-7.5-7.5s-7.5,3.357-7.5,7.5v12.663c0,28.553,23.234,51.781,51.792,51.781h208.65    c28.558,0,51.792-23.229,51.792-51.781V197.742C412.117,193.6,408.759,190.242,404.617,190.242z"/>
	</g>
</g>

<!--<div>Icons made by <a href="https://www.freepik.com" title="Freepik">Freepik</a> from <a href="https://www.flaticon.com/" title="Flaticon">www.flaticon.com</a></div>-->













</svg>
